<?xml version="1.0" encoding="UTF-8"?>
<svg xmlns="http://www.w3.org/2000/svg" xmlns:xlink="http://www.w3.org/1999/xlink" width="25px" height="25px" viewBox="0 0 25 25" version="1.1">
<defs>
<clipPath id="clip1">
  <path d="M 0.402344 4.167969 L 18 4.167969 L 18 21.5 L 0.402344 21.5 Z M 0.402344 4.167969 "/>
</clipPath>
<clipPath id="clip2">
  <path d="M 11.667969 2.148438 L 24.597656 2.148438 L 24.597656 15 L 11.667969 15 Z M 11.667969 2.148438 "/>
</clipPath>
</defs>
<g id="surface1">
<path style=" stroke:none;fill-rule:nonzero;fill:rgb(85.098039%,85.098039%,85.098039%);fill-opacity:1;" d="M 8.960938 9.410156 C 7.941406 9.410156 7.007812 9.820312 6.339844 10.480469 C 5.667969 11.140625 5.25 12.058594 5.253906 13.070312 C 5.253906 14.078125 5.667969 14.996094 6.339844 15.65625 C 7.007812 16.316406 7.941406 16.726562 8.957031 16.726562 C 8.957031 16.726562 8.960938 16.726562 8.960938 16.726562 C 9.984375 16.726562 10.914062 16.316406 11.582031 15.65625 C 12.253906 14.996094 12.667969 14.078125 12.667969 13.070312 L 11.757812 13.070312 C 11.757812 13.832031 11.445312 14.519531 10.9375 15.019531 C 10.429688 15.519531 9.738281 15.828125 8.960938 15.828125 C 8.1875 15.828125 7.488281 15.519531 6.980469 15.019531 C 6.476562 14.519531 6.164062 13.832031 6.164062 13.070312 C 6.164062 12.304688 6.476562 11.621094 6.980469 11.121094 C 7.488281 10.617188 8.1875 10.3125 8.960938 10.3125 C 9.738281 10.3125 10.429688 10.617188 10.9375 11.121094 C 11.445312 11.621094 11.757812 12.304688 11.757812 13.070312 L 12.667969 13.070312 C 12.667969 12.058594 12.253906 11.140625 11.582031 10.480469 C 10.914062 9.820312 9.984375 9.410156 8.960938 9.410156 "/>
<g clip-path="url(#clip1)" clip-rule="nonzero">
<path style=" stroke:none;fill-rule:nonzero;fill:rgb(100%,100%,100%);fill-opacity:1;" d="M 12.664062 7.039062 C 12.050781 6.667969 11.378906 6.394531 10.671875 6.222656 L 10.558594 6.660156 L 11.015625 6.660156 L 11.015625 5.855469 C 11.015625 5.519531 10.878906 5.214844 10.652344 4.996094 C 10.433594 4.777344 10.125 4.636719 9.78125 4.636719 L 8.136719 4.636719 C 7.800781 4.636719 7.488281 4.777344 7.265625 4.996094 C 7.042969 5.214844 6.902344 5.519531 6.902344 5.855469 L 6.902344 6.660156 L 7.363281 6.660156 L 7.253906 6.222656 C 6.542969 6.394531 5.871094 6.667969 5.261719 7.039062 L 5.5 7.421875 L 5.820312 7.101562 L 5.246094 6.535156 C 5.125 6.414062 4.984375 6.328125 4.835938 6.269531 C 4.6875 6.207031 4.527344 6.179688 4.371094 6.179688 C 4.210938 6.179688 4.054688 6.207031 3.90625 6.269531 C 3.761719 6.328125 3.621094 6.414062 3.5 6.535156 L 2.335938 7.683594 C 2.21875 7.800781 2.125 7.9375 2.066406 8.085938 C 2.003906 8.230469 1.976562 8.386719 1.976562 8.542969 C 1.976562 8.699219 2.003906 8.855469 2.066406 9 C 2.125 9.148438 2.21875 9.285156 2.335938 9.402344 L 2.914062 9.96875 L 3.234375 9.65625 L 2.84375 9.421875 C 2.472656 10.023438 2.195312 10.683594 2.023438 11.386719 L 2.464844 11.492188 L 2.464844 11.042969 L 1.648438 11.042969 C 1.308594 11.042969 1 11.179688 0.773438 11.398438 C 0.554688 11.617188 0.414062 11.921875 0.414062 12.257812 L 0.414062 13.878906 C 0.414062 14.214844 0.554688 14.519531 0.773438 14.742188 C 0.996094 14.960938 1.308594 15.097656 1.648438 15.097656 L 2.464844 15.097656 L 2.464844 14.648438 L 2.023438 14.753906 C 2.195312 15.457031 2.472656 16.121094 2.84375 16.722656 L 3.234375 16.488281 L 2.914062 16.167969 L 2.335938 16.738281 C 2.21875 16.855469 2.125 16.996094 2.066406 17.140625 C 2.003906 17.289062 1.976562 17.445312 1.976562 17.597656 C 1.976562 17.753906 2.003906 17.910156 2.066406 18.054688 C 2.125 18.203125 2.21875 18.34375 2.335938 18.460938 L 3.5 19.605469 C 3.621094 19.722656 3.761719 19.8125 3.90625 19.871094 C 4.054688 19.929688 4.210938 19.960938 4.371094 19.960938 C 4.527344 19.960938 4.6875 19.929688 4.835938 19.871094 C 4.984375 19.8125 5.125 19.722656 5.246094 19.605469 L 5.820312 19.035156 L 5.5 18.71875 L 5.261719 19.105469 C 5.871094 19.46875 6.542969 19.746094 7.253906 19.917969 L 7.363281 19.480469 L 6.902344 19.480469 L 6.902344 20.28125 C 6.902344 20.617188 7.042969 20.925781 7.265625 21.144531 C 7.488281 21.363281 7.800781 21.5 8.136719 21.5 L 9.78125 21.5 C 10.125 21.5 10.433594 21.363281 10.652344 21.144531 C 10.878906 20.925781 11.019531 20.617188 11.015625 20.28125 L 11.015625 19.480469 L 10.558594 19.480469 L 10.671875 19.917969 C 11.378906 19.746094 12.050781 19.46875 12.664062 19.105469 L 12.425781 18.71875 L 12.101562 19.035156 L 12.679688 19.605469 C 12.800781 19.722656 12.941406 19.8125 13.085938 19.871094 C 13.234375 19.929688 13.390625 19.960938 13.550781 19.960938 C 13.707031 19.960938 13.867188 19.929688 14.011719 19.871094 C 14.164062 19.8125 14.304688 19.722656 14.425781 19.605469 L 15.585938 18.460938 C 15.707031 18.34375 15.796875 18.203125 15.855469 18.054688 C 15.917969 17.910156 15.949219 17.753906 15.949219 17.597656 C 15.949219 17.445312 15.917969 17.289062 15.855469 17.140625 C 15.796875 16.996094 15.707031 16.855469 15.585938 16.738281 L 15.011719 16.167969 L 14.6875 16.488281 L 15.078125 16.722656 C 15.449219 16.121094 15.730469 15.457031 15.902344 14.753906 L 15.457031 14.648438 L 15.457031 15.097656 L 16.273438 15.097656 C 16.613281 15.097656 16.925781 14.960938 17.148438 14.742188 C 17.371094 14.523438 17.511719 14.214844 17.507812 13.878906 C 17.507812 13.632812 17.304688 13.429688 17.050781 13.429688 C 16.800781 13.429688 16.59375 13.632812 16.59375 13.878906 C 16.59375 13.972656 16.558594 14.046875 16.503906 14.105469 C 16.441406 14.164062 16.363281 14.199219 16.273438 14.199219 L 15.101562 14.199219 L 15.015625 14.539062 C 14.863281 15.15625 14.621094 15.730469 14.300781 16.257812 L 14.113281 16.554688 L 14.941406 17.375 C 14.972656 17.40625 14.996094 17.441406 15.011719 17.480469 C 15.027344 17.515625 15.035156 17.558594 15.035156 17.597656 C 15.035156 17.640625 15.027344 17.679688 15.011719 17.71875 C 14.996094 17.757812 14.972656 17.789062 14.941406 17.820312 L 13.777344 18.96875 C 13.746094 19 13.710938 19.023438 13.675781 19.039062 C 13.636719 19.054688 13.59375 19.0625 13.550781 19.0625 C 13.511719 19.0625 13.46875 19.054688 13.429688 19.039062 C 13.390625 19.023438 13.359375 19 13.324219 18.96875 L 12.496094 18.152344 L 12.191406 18.332031 C 11.660156 18.652344 11.074219 18.894531 10.457031 19.042969 L 10.105469 19.128906 L 10.105469 20.28125 C 10.105469 20.371094 10.070312 20.449219 10.011719 20.507812 C 9.953125 20.566406 9.875 20.601562 9.785156 20.601562 L 8.140625 20.601562 C 8.050781 20.601562 7.972656 20.566406 7.914062 20.507812 C 7.855469 20.449219 7.820312 20.375 7.820312 20.28125 L 7.820312 19.128906 L 7.472656 19.042969 C 6.847656 18.894531 6.265625 18.652344 5.734375 18.332031 L 5.429688 18.152344 L 4.601562 18.96875 C 4.566406 19 4.53125 19.023438 4.496094 19.039062 C 4.457031 19.054688 4.414062 19.0625 4.371094 19.0625 C 4.332031 19.0625 4.289062 19.054688 4.25 19.039062 C 4.210938 19.023438 4.179688 19 4.144531 18.96875 L 2.980469 17.820312 C 2.953125 17.789062 2.929688 17.757812 2.914062 17.71875 C 2.898438 17.679688 2.886719 17.640625 2.886719 17.597656 C 2.886719 17.558594 2.898438 17.515625 2.914062 17.480469 C 2.925781 17.441406 2.949219 17.40625 2.980469 17.375 L 3.8125 16.554688 L 3.625 16.257812 C 3.304688 15.730469 3.058594 15.15625 2.90625 14.539062 L 2.824219 14.199219 L 1.648438 14.199219 C 1.558594 14.199219 1.480469 14.164062 1.417969 14.105469 C 1.359375 14.050781 1.324219 13.972656 1.324219 13.878906 L 1.324219 12.257812 C 1.324219 12.171875 1.359375 12.09375 1.417969 12.035156 C 1.480469 11.976562 1.554688 11.941406 1.648438 11.941406 L 2.824219 11.941406 L 2.90625 11.597656 C 3.058594 10.984375 3.304688 10.410156 3.625 9.886719 L 3.808594 9.585938 L 2.980469 8.765625 C 2.949219 8.734375 2.925781 8.699219 2.910156 8.660156 C 2.894531 8.621094 2.886719 8.582031 2.886719 8.542969 C 2.886719 8.503906 2.894531 8.460938 2.910156 8.425781 C 2.925781 8.386719 2.949219 8.347656 2.980469 8.320312 L 4.144531 7.171875 C 4.175781 7.140625 4.210938 7.117188 4.25 7.101562 C 4.289062 7.085938 4.328125 7.078125 4.371094 7.078125 C 4.414062 7.078125 4.453125 7.085938 4.492188 7.101562 C 4.53125 7.117188 4.566406 7.136719 4.601562 7.171875 L 5.425781 7.988281 L 5.734375 7.804688 C 6.261719 7.488281 6.847656 7.25 7.472656 7.097656 L 7.816406 7.015625 L 7.816406 5.859375 C 7.816406 5.769531 7.851562 5.691406 7.910156 5.636719 C 7.972656 5.574219 8.046875 5.539062 8.136719 5.539062 L 9.78125 5.539062 C 9.871094 5.539062 9.949219 5.574219 10.011719 5.636719 C 10.070312 5.691406 10.105469 5.769531 10.105469 5.859375 L 10.105469 7.015625 L 10.453125 7.097656 C 11.074219 7.25 11.65625 7.488281 12.1875 7.804688 C 12.40625 7.9375 12.683594 7.867188 12.816406 7.65625 C 12.945312 7.441406 12.878906 7.164062 12.664062 7.039062 "/>
</g>
<path style=" stroke:none;fill-rule:nonzero;fill:rgb(100%,75.686275%,3.137255%);fill-opacity:1;" d="M 18.257812 5.613281 C 17.484375 5.613281 16.773438 5.925781 16.265625 6.425781 C 15.757812 6.925781 15.441406 7.625 15.441406 8.386719 C 15.441406 9.152344 15.757812 9.851562 16.265625 10.355469 C 16.773438 10.855469 17.480469 11.167969 18.257812 11.167969 C 19.03125 11.167969 19.742188 10.855469 20.25 10.355469 C 20.757812 9.851562 21.074219 9.152344 21.074219 8.386719 L 20.164062 8.386719 C 20.164062 8.910156 19.949219 9.378906 19.605469 9.714844 C 19.257812 10.058594 18.785156 10.269531 18.257812 10.269531 C 17.730469 10.269531 17.253906 10.058594 16.910156 9.714844 C 16.566406 9.375 16.355469 8.910156 16.355469 8.386719 C 16.355469 7.871094 16.566406 7.402344 16.910156 7.058594 C 17.257812 6.722656 17.730469 6.511719 18.257812 6.511719 C 18.785156 6.511719 19.257812 6.722656 19.605469 7.058594 C 19.949219 7.402344 20.164062 7.871094 20.164062 8.386719 L 21.074219 8.386719 C 21.074219 7.625 20.757812 6.925781 20.25 6.425781 C 19.742188 5.925781 19.035156 5.613281 18.257812 5.613281 "/>
<g clip-path="url(#clip2)" clip-rule="nonzero">
<path style=" stroke:none;fill-rule:nonzero;fill:rgb(100%,75.686275%,3.137255%);fill-opacity:1;" d="M 15.675781 4.855469 L 15.980469 4.675781 C 16.355469 4.449219 16.769531 4.28125 17.207031 4.175781 L 17.550781 4.089844 L 17.550781 3.152344 C 17.550781 3.125 17.566406 3.097656 17.585938 3.078125 C 17.605469 3.058594 17.628906 3.046875 17.664062 3.046875 L 18.855469 3.046875 C 18.886719 3.046875 18.910156 3.058594 18.933594 3.078125 C 18.953125 3.097656 18.960938 3.125 18.960938 3.152344 L 18.960938 4.089844 L 19.308594 4.171875 C 19.75 4.28125 20.160156 4.449219 20.535156 4.675781 L 20.839844 4.855469 L 21.511719 4.195312 C 21.523438 4.183594 21.53125 4.175781 21.546875 4.171875 C 21.558594 4.167969 21.574219 4.164062 21.589844 4.164062 C 21.601562 4.164062 21.617188 4.167969 21.628906 4.171875 C 21.644531 4.175781 21.652344 4.183594 21.667969 4.195312 L 22.507812 5.027344 C 22.519531 5.039062 22.527344 5.050781 22.53125 5.0625 C 22.539062 5.074219 22.539062 5.089844 22.539062 5.105469 C 22.539062 5.117188 22.539062 5.128906 22.53125 5.144531 C 22.527344 5.15625 22.519531 5.167969 22.507812 5.179688 L 21.835938 5.839844 L 22.019531 6.144531 C 22.25 6.511719 22.421875 6.917969 22.527344 7.351562 L 22.613281 7.691406 L 23.5625 7.691406 C 23.59375 7.691406 23.621094 7.703125 23.640625 7.722656 C 23.660156 7.742188 23.671875 7.769531 23.671875 7.800781 L 23.671875 8.972656 C 23.671875 9.007812 23.660156 9.03125 23.640625 9.050781 C 23.621094 9.070312 23.59375 9.082031 23.5625 9.082031 L 22.613281 9.082031 L 22.527344 9.425781 C 22.421875 9.859375 22.25 10.261719 22.019531 10.632812 L 21.835938 10.9375 L 22.507812 11.597656 C 22.519531 11.609375 22.527344 11.621094 22.53125 11.632812 C 22.539062 11.648438 22.539062 11.660156 22.539062 11.671875 C 22.539062 11.6875 22.539062 11.703125 22.53125 11.714844 C 22.527344 11.726562 22.519531 11.738281 22.507812 11.746094 L 21.667969 12.582031 C 21.652344 12.589844 21.644531 12.601562 21.628906 12.605469 C 21.617188 12.609375 21.601562 12.613281 21.589844 12.613281 C 21.574219 12.613281 21.558594 12.609375 21.546875 12.605469 C 21.53125 12.597656 21.523438 12.589844 21.511719 12.582031 L 20.839844 11.921875 L 20.535156 12.101562 C 20.160156 12.324219 19.75 12.496094 19.308594 12.601562 L 18.960938 12.683594 L 18.960938 13.621094 C 18.960938 13.652344 18.953125 13.679688 18.933594 13.699219 C 18.910156 13.71875 18.886719 13.730469 18.855469 13.730469 L 17.664062 13.730469 C 17.628906 13.730469 17.605469 13.71875 17.585938 13.699219 C 17.566406 13.679688 17.550781 13.652344 17.550781 13.621094 L 17.550781 12.683594 L 17.207031 12.601562 C 16.769531 12.496094 16.355469 12.324219 15.980469 12.101562 L 15.675781 11.921875 L 15.003906 12.582031 C 14.992188 12.589844 14.980469 12.601562 14.96875 12.605469 C 14.957031 12.609375 14.941406 12.613281 14.929688 12.613281 C 14.910156 12.613281 14.898438 12.609375 14.886719 12.605469 C 14.871094 12.597656 14.863281 12.589844 14.851562 12.582031 L 14.007812 11.746094 C 13.996094 11.738281 13.988281 11.726562 13.984375 11.714844 C 13.976562 11.703125 13.972656 11.6875 13.972656 11.671875 C 13.972656 11.660156 13.976562 11.648438 13.984375 11.632812 C 13.992188 11.621094 13.996094 11.609375 14.007812 11.597656 L 14.675781 10.9375 L 14.496094 10.632812 C 14.269531 10.261719 14.09375 9.859375 13.988281 9.425781 L 13.898438 9.082031 L 12.953125 9.082031 C 12.917969 9.082031 12.898438 9.070312 12.875 9.050781 C 12.855469 9.03125 12.84375 9.007812 12.84375 8.972656 L 12.84375 7.800781 C 12.84375 7.765625 12.855469 7.742188 12.875 7.722656 C 12.898438 7.703125 12.917969 7.691406 12.953125 7.691406 L 13.898438 7.691406 L 13.988281 7.351562 C 14.09375 6.917969 14.269531 6.511719 14.496094 6.144531 L 14.675781 5.839844 L 14.007812 5.179688 C 13.996094 5.167969 13.988281 5.15625 13.984375 5.144531 C 13.976562 5.128906 13.972656 5.117188 13.972656 5.105469 C 13.972656 5.089844 13.976562 5.074219 13.984375 5.0625 C 13.992188 5.050781 13.996094 5.039062 14.007812 5.027344 L 14.851562 4.195312 C 14.863281 4.183594 14.871094 4.175781 14.886719 4.171875 C 14.898438 4.167969 14.910156 4.164062 14.929688 4.164062 C 14.941406 4.164062 14.957031 4.167969 14.96875 4.171875 C 14.980469 4.175781 14.992188 4.183594 15.003906 4.195312 L 15.675781 4.855469 M 18.855469 2.148438 L 17.664062 2.148438 C 17.382812 2.148438 17.125 2.261719 16.941406 2.445312 C 16.757812 2.625 16.644531 2.878906 16.644531 3.152344 L 16.644531 3.398438 C 16.359375 3.488281 16.085938 3.601562 15.824219 3.730469 L 15.652344 3.5625 C 15.550781 3.464844 15.4375 3.386719 15.3125 3.339844 C 15.1875 3.292969 15.058594 3.265625 14.929688 3.265625 C 14.796875 3.265625 14.667969 3.292969 14.542969 3.339844 C 14.421875 3.386719 14.308594 3.464844 14.207031 3.5625 L 13.367188 4.390625 C 13.265625 4.488281 13.191406 4.601562 13.140625 4.722656 C 13.089844 4.847656 13.066406 4.972656 13.066406 5.105469 C 13.066406 5.230469 13.089844 5.363281 13.140625 5.480469 C 13.191406 5.601562 13.265625 5.714844 13.367188 5.8125 L 13.539062 5.988281 C 13.40625 6.242188 13.292969 6.511719 13.199219 6.792969 L 12.953125 6.792969 C 12.777344 6.792969 12.605469 6.839844 12.460938 6.921875 C 12.527344 6.957031 12.597656 6.996094 12.664062 7.035156 C 12.878906 7.164062 12.949219 7.441406 12.816406 7.652344 C 12.730469 7.792969 12.582031 7.871094 12.429688 7.871094 C 12.347656 7.871094 12.265625 7.847656 12.191406 7.800781 C 12.109375 7.757812 12.027344 7.707031 11.941406 7.664062 C 11.9375 7.707031 11.933594 7.753906 11.933594 7.800781 L 11.933594 8.976562 C 11.933594 9.253906 12.046875 9.507812 12.234375 9.6875 C 12.414062 9.871094 12.671875 9.984375 12.953125 9.984375 C 12.953125 9.984375 12.953125 9.984375 12.957031 9.984375 L 13.199219 9.984375 C 13.292969 10.261719 13.40625 10.535156 13.539062 10.789062 L 13.367188 10.964844 C 13.269531 11.0625 13.191406 11.175781 13.140625 11.296875 C 13.089844 11.414062 13.066406 11.546875 13.066406 11.671875 C 13.066406 11.804688 13.089844 11.929688 13.140625 12.054688 C 13.191406 12.175781 13.269531 12.289062 13.367188 12.386719 L 14.207031 13.214844 C 14.308594 13.3125 14.425781 13.386719 14.542969 13.4375 C 14.667969 13.488281 14.796875 13.511719 14.929688 13.511719 C 15.058594 13.511719 15.1875 13.488281 15.3125 13.4375 C 15.4375 13.386719 15.554688 13.3125 15.652344 13.214844 L 15.824219 13.046875 C 16.085938 13.179688 16.359375 13.289062 16.644531 13.378906 L 16.644531 13.621094 C 16.644531 13.640625 16.644531 13.660156 16.644531 13.679688 C 16.71875 13.527344 16.875 13.425781 17.054688 13.425781 C 17.304688 13.425781 17.511719 13.628906 17.511719 13.875 C 17.511719 14.128906 17.433594 14.363281 17.296875 14.558594 C 17.410156 14.605469 17.535156 14.628906 17.664062 14.628906 C 17.664062 14.628906 17.664062 14.628906 17.667969 14.628906 L 18.855469 14.628906 C 19.136719 14.628906 19.394531 14.515625 19.578125 14.332031 C 19.761719 14.152344 19.875 13.898438 19.875 13.621094 L 19.875 13.378906 C 20.160156 13.289062 20.4375 13.175781 20.695312 13.046875 L 20.867188 13.214844 C 20.96875 13.3125 21.082031 13.386719 21.207031 13.4375 C 21.332031 13.488281 21.460938 13.511719 21.589844 13.511719 C 21.722656 13.511719 21.851562 13.488281 21.976562 13.4375 C 22.097656 13.386719 22.214844 13.3125 22.3125 13.214844 L 23.152344 12.386719 C 23.253906 12.289062 23.328125 12.175781 23.378906 12.054688 C 23.429688 11.929688 23.453125 11.804688 23.453125 11.671875 C 23.453125 11.546875 23.429688 11.414062 23.378906 11.296875 C 23.328125 11.175781 23.253906 11.0625 23.152344 10.964844 L 22.980469 10.789062 C 23.113281 10.535156 23.230469 10.261719 23.320312 9.984375 L 23.566406 9.984375 C 23.847656 9.984375 24.105469 9.871094 24.285156 9.6875 C 24.472656 9.507812 24.585938 9.253906 24.585938 8.976562 L 24.585938 7.800781 C 24.585938 7.527344 24.472656 7.269531 24.285156 7.089844 C 24.105469 6.90625 23.847656 6.792969 23.566406 6.792969 L 23.320312 6.792969 C 23.230469 6.511719 23.113281 6.242188 22.980469 5.988281 L 23.152344 5.8125 C 23.253906 5.714844 23.328125 5.601562 23.378906 5.480469 C 23.429688 5.363281 23.453125 5.230469 23.453125 5.105469 C 23.453125 4.972656 23.429688 4.847656 23.378906 4.722656 C 23.328125 4.601562 23.253906 4.488281 23.152344 4.390625 L 22.3125 3.5625 C 22.214844 3.464844 22.097656 3.386719 21.976562 3.339844 C 21.851562 3.292969 21.722656 3.265625 21.589844 3.265625 C 21.460938 3.265625 21.332031 3.292969 21.207031 3.339844 C 21.082031 3.386719 20.96875 3.464844 20.867188 3.5625 L 20.695312 3.730469 C 20.4375 3.601562 20.160156 3.488281 19.875 3.398438 L 19.875 3.152344 C 19.875 2.878906 19.761719 2.625 19.578125 2.445312 C 19.394531 2.261719 19.136719 2.148438 18.855469 2.148438 "/>
</g>
<path style=" stroke:none;fill-rule:nonzero;fill:rgb(100%,75.686275%,3.137255%);fill-opacity:1;" d="M 17.050781 13.429688 C 16.871094 13.429688 16.71875 13.53125 16.644531 13.679688 C 16.65625 13.933594 16.769531 14.167969 16.941406 14.335938 C 17.039062 14.433594 17.160156 14.511719 17.292969 14.5625 C 17.429688 14.367188 17.507812 14.128906 17.507812 13.878906 C 17.507812 13.632812 17.300781 13.429688 17.050781 13.429688 M 12.457031 6.921875 C 12.371094 6.964844 12.296875 7.023438 12.230469 7.089844 C 12.078125 7.238281 11.972656 7.441406 11.941406 7.664062 C 12.023438 7.707031 12.109375 7.757812 12.1875 7.804688 C 12.261719 7.847656 12.34375 7.871094 12.425781 7.871094 C 12.578125 7.871094 12.730469 7.792969 12.816406 7.652344 C 12.945312 7.441406 12.878906 7.164062 12.664062 7.039062 C 12.59375 6.996094 12.527344 6.960938 12.457031 6.921875 "/>
</g>
</svg>
